<svg xmlns="http://www.w3.org/2000/svg" viewBox="0 0 100 100" fill="none">
  <defs>
    <linearGradient id="goldGrad" x1="0%" y1="0%" x2="100%" y2="100%">
      <stop offset="0%" stopColor="#F3C623" />
      <stop offset="50%" stopColor="#D4AF37" />
      <stop offset="100%" stopColor="#8A6F14" />
    </linearGradient>
    <linearGradient id="blueGrad" x1="0%" y1="0%" x2="100%" y2="100%">
      <stop offset="0%" stopColor="#60A5FA" />
      <stop offset="100%" stopColor="#1D4ED8" />
    </linearGradient>
    <linearGradient id="shieldBg" x1="0%" y1="0%" x2="0%" y2="100%">
      <stop offset="0%" stopColor="#1E293B" />
      <stop offset="100%" stopColor="#0F172A" />
    </linearGradient>
  </defs>
  <path d="M50 5 L88 23 C88 56 68 85 50 95 C32 85 12 56 12 23 L50 5 Z" fill="url(#shieldBg)" stroke="url(#goldGrad)" strokeWidth="4"/>
  <path d="M28 55 C30 52, 38 43, 44 42 C50 41, 58 35, 66 38 C72 40, 77 47, 79 50 L82 52 C82 52, 85 55, 78 55 C75 55, 74 58, 72 58 C70 58, 68 55, 62 55 C56 55, 54 58, 52 58 C50 58, 48 55, 34 55 C30 55, 27 55, 28 55 Z" fill="url(#goldGrad)"/>
  <circle cx="38" cy="56" r="3.5" fill="#070a13" stroke="url(#blueGrad)" strokeWidth="1.5"/>
  <circle cx="67" cy="56" r="3.5" fill="#070a13" stroke="url(#blueGrad)" strokeWidth="1.5"/>
</svg>
